# Blender 4.5.4 LTS
# www.blender.org
mtllib DoorRight.mtl
o door.003
v -8.045251 -6.519390 -0.040001
v -8.045266 14.480608 -0.040001
v 0.230140 -6.519385 -0.039997
v 0.230124 14.480612 -0.039997
v -8.045251 -6.519390 0.039997
v -8.045266 14.480608 0.039997
v 0.230140 -6.519385 0.040005
v 0.230124 14.480612 0.040005
vn -0.0000 -1.0000 -0.0000
vn 1.0000 -0.0000 -0.0000
vn -0.0000 -0.0000 1.0000
vn -0.0000 1.0000 -0.0000
vn -0.0000 -0.0000 -1.0000
vn -1.0000 -0.0000 -0.0000
vt -0.001333 1.001333
vt 1.001333 -0.001333
vt 1.001333 1.001333
vt -0.001333 -0.001333
s 0
usemtl Glass_with_green_side
f 5/1/1 1/3/1 3/2/1
f 3/3/2 4/2/2 8/4/2
f 8/4/3 6/2/3 5/3/3
f 2/3/4 6/1/4 8/4/4
f 1/3/5 2/2/5 4/4/5
f 5/1/6 6/4/6 2/2/6
f 5/1/1 3/2/1 7/4/1
f 3/3/2 8/4/2 7/1/2
f 8/4/3 5/3/3 7/1/3
f 2/3/4 8/4/4 4/2/4
f 1/3/5 4/4/5 3/1/5
f 5/1/6 2/2/6 1/3/6
