# Blender 4.5.4 LTS
# www.blender.org
mtllib Walls.mtl
o Wall
v 152.348495 -6.850061 124.306763
v 152.348495 -6.850061 -112.946487
v 153.449448 45.969818 -113.571106
v -145.672256 -6.849835 124.645264
v -145.301788 45.970051 124.645264
v -145.372223 45.970051 -113.832634
v -145.741516 -6.849837 -113.430984
v -145.520447 45.970051 -113.373642
v -145.667007 -6.849834 -113.837509
v 152.361755 -6.850062 -112.801636
v -106.417000 -7.035353 54.671772
v -134.845886 -6.902977 54.725971
v -145.514206 14.903734 54.870552
v -134.832794 14.863695 54.857212
v -106.437134 45.754917 54.859379
v -106.483925 45.665104 54.726097
v -106.426346 14.764689 54.805367
v -117.073494 14.797176 54.870552
v -106.405174 14.759998 54.870548
v -117.073494 -7.046717 54.725975
v 153.247528 45.969818 124.293427
v 152.411835 -6.850062 124.293427
v -106.416969 45.970016 124.808205
v -106.431679 45.970020 124.793427
v -106.336685 -6.849864 124.193428
v -145.672241 45.970051 55.146854
v -145.672256 -6.849835 55.146854
v -106.516998 -7.135353 54.671772
v -134.845886 -7.002977 54.725971
v -145.514206 14.703733 54.870552
v -134.832794 14.763695 54.857212
v -106.537132 45.754917 54.659378
v -106.483925 45.565105 54.726097
v -106.426346 14.664689 54.805367
v -117.073494 14.697176 54.870552
v -106.405174 14.659998 54.870548
v -117.073494 -7.146717 54.725975
v -106.116966 46.170017 124.808205
v -106.336678 -6.649865 124.393425
v -145.672241 45.870052 55.146854
v -145.672256 -6.949835 55.146854
v -106.416969 45.970016 124.808205
vn -0.9998 0.0189 -0.0004
vn 1.0000 -0.0063 -0.0001
vn -1.0000 -0.0010 0.0007
vn -0.0008 0.0057 -1.0000
vn 0.0054 -0.0021 1.0000
vn 0.0202 0.0033 0.9998
vn 0.0056 -0.0064 1.0000
vn -0.0007 0.0067 1.0000
vn 1.0000 -0.0019 -0.0043
vn -0.0054 0.0021 -1.0000
vn -0.0202 -0.0033 -0.9998
vn -0.0056 0.0064 -1.0000
vt 1.324335 3.429840
vt 1.324336 -4.500000
vt -0.441344 -4.499555
vt -0.441472 3.457403
vt 3.089793 -4.500000
vt 1.324335 -4.499999
vt 1.324336 3.457567
vt 3.089764 3.457401
vt 3.089793 -4.494821
vt 4.855227 -4.500000
vt 4.854214 -2.172080
vt 3.089793 -2.167809
vt -0.441472 -4.500000
vt -2.206897 -4.472053
vt -2.206898 4.186000
vt -0.441472 4.179132
vt 4.128123 -2.158649
vt 4.128123 -0.851518
vt 3.095189 -0.857898
vt 3.089793 -2.167809
vt 3.451751 -0.124002
vt 3.089793 -0.124002
vt 3.092989 -0.851519
vt 3.449994 -0.851088
vt 3.445974 -0.124001
vt 3.445974 0.606104
vt 3.089793 0.605742
vt 3.090103 -0.122898
vt -2.206898 5.500000
vt -2.207084 -4.492628
vt -3.972458 -4.499999
vt -3.972458 5.463664
s 0
f 2/1/1 1/2/1 21/3/1 3/4/1
f 5/5/2 4/6/2 9/7/2 6/8/2
f 25/9/3 23/10/3 15/11/3 11/12/3
f 21/13/4 22/14/4 25/15/4 24/16/4
f 13/17/5 19/18/5 16/19/5 26/20/5
f 27/21/6 12/22/6 14/23/6 13/24/6
f 18/25/7 20/26/7 11/27/7 17/28/7
f 3/29/8 8/30/8 7/31/8 10/32/8
f 39/9/9 28/12/9 32/11/9 38/10/9
f 30/17/10 40/20/10 33/19/10 36/18/10
f 41/21/11 30/24/11 31/23/11 29/22/11
f 35/25/12 34/28/12 28/27/12 37/26/12
